<mxfile host="65bd71144e">
    <diagram id="gHrtkzs7Ze9sPmYgYWUP" name="第1頁">
        <mxGraphModel dx="797" dy="516" grid="1" gridSize="10" guides="1" tooltips="1" connect="1" arrows="1" fold="1" page="1" pageScale="1" pageWidth="827" pageHeight="1169" background="#ffffff" math="0" shadow="0">
            <root>
                <mxCell id="0"/>
                <mxCell id="1" parent="0"/>
                <mxCell id="80" value="" style="rounded=0;whiteSpace=wrap;html=1;fillColor=none;" vertex="1" parent="1">
                    <mxGeometry x="600" y="163.5" width="530" height="200" as="geometry"/>
                </mxCell>
                <mxCell id="69" style="edgeStyle=none;html=1;entryX=0;entryY=0.5;entryDx=0;entryDy=0;" edge="1" parent="1" source="8" target="26">
                    <mxGeometry relative="1" as="geometry">
                        <mxPoint x="670" y="260" as="targetPoint"/>
                    </mxGeometry>
                </mxCell>
                <mxCell id="8" value="Target Problem" style="ellipse;whiteSpace=wrap;html=1;" vertex="1" parent="1">
                    <mxGeometry x="610" y="240" width="100" height="40" as="geometry"/>
                </mxCell>
                <mxCell id="72" style="edgeStyle=none;html=1;exitX=0.5;exitY=1;exitDx=0;exitDy=0;entryX=0.5;entryY=1;entryDx=0;entryDy=0;" edge="1" parent="1" source="26" target="33">
                    <mxGeometry relative="1" as="geometry">
                        <Array as="points">
                            <mxPoint x="800" y="320"/>
                            <mxPoint x="1060" y="320"/>
                        </Array>
                    </mxGeometry>
                </mxCell>
                <mxCell id="26" value="Meta-heuristic algorithm" style="rounded=1;whiteSpace=wrap;html=1;fillColor=#ffe6cc;strokeColor=#d79b00;" vertex="1" parent="1">
                    <mxGeometry x="740" y="240" width="120" height="40" as="geometry"/>
                </mxCell>
                <mxCell id="27" value="Atten." style="rounded=1;whiteSpace=wrap;html=1;" vertex="1" parent="1">
                    <mxGeometry x="840" y="230" width="63" height="20" as="geometry"/>
                </mxCell>
                <mxCell id="74" style="edgeStyle=none;html=1;exitX=0.5;exitY=0;exitDx=0;exitDy=0;entryX=0.5;entryY=0;entryDx=0;entryDy=0;" edge="1" parent="1" source="33" target="26">
                    <mxGeometry relative="1" as="geometry">
                        <Array as="points">
                            <mxPoint x="1060" y="200"/>
                            <mxPoint x="800" y="200"/>
                        </Array>
                    </mxGeometry>
                </mxCell>
                <mxCell id="76" style="edgeStyle=none;html=1;exitX=0.25;exitY=0;exitDx=0;exitDy=0;entryX=0.5;entryY=0;entryDx=0;entryDy=0;" edge="1" parent="1" source="33">
                    <mxGeometry relative="1" as="geometry">
                        <mxPoint x="1070" y="240" as="sourcePoint"/>
                        <mxPoint x="871.4999999999998" y="230" as="targetPoint"/>
                        <Array as="points">
                            <mxPoint x="1030" y="210"/>
                            <mxPoint x="872" y="210"/>
                        </Array>
                    </mxGeometry>
                </mxCell>
                <mxCell id="77" value="return evaluation" style="edgeLabel;html=1;align=center;verticalAlign=middle;resizable=0;points=[];fontSize=12;" vertex="1" connectable="0" parent="76">
                    <mxGeometry x="-0.0377" y="1" relative="1" as="geometry">
                        <mxPoint x="-48" y="-12" as="offset"/>
                    </mxGeometry>
                </mxCell>
                <mxCell id="73" style="edgeStyle=none;html=1;exitX=1;exitY=0.5;exitDx=0;exitDy=0;entryX=0;entryY=0.5;entryDx=0;entryDy=0;" edge="1" parent="1" source="46" target="33">
                    <mxGeometry relative="1" as="geometry"/>
                </mxCell>
                <mxCell id="46" value="" style="shape=datastore;whiteSpace=wrap;html=1;fillColor=#f5f5f5;fontColor=#333333;strokeColor=#666666;" vertex="1" parent="1">
                    <mxGeometry x="933" y="240" width="40" height="40" as="geometry"/>
                </mxCell>
                <UserObject label="&lt;font style=&quot;color: rgb(0, 0, 0);&quot;&gt;Meta-heuristic&amp;nbsp;&lt;/font&gt;&lt;div&gt;&lt;font style=&quot;color: rgb(0, 0, 0);&quot;&gt;algorithm pool&lt;/font&gt;&lt;/div&gt;" placeholders="1" name="Variable" id="47">
                    <mxCell style="text;html=1;strokeColor=none;fillColor=none;align=center;verticalAlign=middle;whiteSpace=wrap;overflow=hidden;" vertex="1" parent="1">
                        <mxGeometry x="904" y="273" width="100" height="40" as="geometry"/>
                    </mxCell>
                </UserObject>
                <mxCell id="51" value="Hyper-Heuristic machanism" style="text;strokeColor=none;fillColor=none;html=1;fontSize=24;fontStyle=1;verticalAlign=middle;align=center;" vertex="1" parent="1">
                    <mxGeometry x="710" y="156.5" width="100" height="40" as="geometry"/>
                </mxCell>
                <mxCell id="33" value="&lt;font style=&quot;color: rgb(0, 0, 0);&quot;&gt;Evalute selected&amp;nbsp;&lt;/font&gt;&lt;div&gt;&lt;font style=&quot;color: rgb(0, 0, 0);&quot;&gt;meta-heristic combination&lt;/font&gt;&lt;/div&gt;" style="rounded=1;whiteSpace=wrap;html=1;fillColor=#ffe6cc;strokeColor=#d79b00;fontColor=#000000;" vertex="1" parent="1">
                    <mxGeometry x="1000" y="240" width="120" height="40" as="geometry"/>
                </mxCell>
            </root>
        </mxGraphModel>
    </diagram>
</mxfile>